<svg xmlns="http://www.w3.org/2000/svg" width="1600" height="1000" viewBox="0 0 1600 1000" preserveAspectRatio="xMidYMid slice">
  <defs>
    <!-- Cool blue-grey base with bloom in upper-centre (matching photo's light source) -->
    <radialGradient id="base" cx="0.58" cy="0.20" r="0.75">
      <stop offset="0"    stop-color="#D4DEE8"/>
      <stop offset="0.42" stop-color="#BEC8D4"/>
      <stop offset="1"    stop-color="#A0AABA"/>
    </radialGradient>

    <!-- Panel face: slight dark top+bottom edge on every panel -->
    <linearGradient id="pf" x1="0" y1="0" x2="0" y2="1">
      <stop offset="0"    stop-color="#506070" stop-opacity="0.13"/>
      <stop offset="0.09" stop-color="#506070" stop-opacity="0"/>
      <stop offset="0.91" stop-color="#506070" stop-opacity="0"/>
      <stop offset="1"    stop-color="#506070" stop-opacity="0.11"/>
    </linearGradient>

    <!-- Shadow below each horizontal seam -->
    <linearGradient id="hs" x1="0" y1="0" x2="0" y2="1">
      <stop offset="0"    stop-color="#48545E" stop-opacity="0.55"/>
      <stop offset="0.7"  stop-color="#48545E" stop-opacity="0.05"/>
      <stop offset="1"    stop-color="#48545E" stop-opacity="0"/>
    </linearGradient>

    <!-- Shadow to the right of the vertical seam -->
    <linearGradient id="vs" x1="0" y1="0" x2="1" y2="0">
      <stop offset="0"    stop-color="#48545E" stop-opacity="0.48"/>
      <stop offset="0.65" stop-color="#48545E" stop-opacity="0.06"/>
      <stop offset="1"    stop-color="#48545E" stop-opacity="0"/>
    </linearGradient>

    <!-- Cloud/damp stains — blue-tinted grey like the photo -->
    <radialGradient id="stain1" cx="0.5" cy="0.5" r="0.5">
      <stop offset="0" stop-color="#6070A0" stop-opacity="0.24"/>
      <stop offset="1" stop-color="#6070A0" stop-opacity="0"/>
    </radialGradient>
    <radialGradient id="stain2" cx="0.5" cy="0.5" r="0.5">
      <stop offset="0" stop-color="#586898" stop-opacity="0.18"/>
      <stop offset="1" stop-color="#586898" stop-opacity="0"/>
    </radialGradient>
    <radialGradient id="stain3" cx="0.5" cy="0.5" r="0.5">
      <stop offset="0" stop-color="#6878A8" stop-opacity="0.20"/>
      <stop offset="1" stop-color="#6878A8" stop-opacity="0"/>
    </radialGradient>

    <!-- Floor gradient: slightly darker, polished concrete -->
    <linearGradient id="floor" x1="0" y1="0" x2="0" y2="1">
      <stop offset="0" stop-color="#8C96A6"/>
      <stop offset="1" stop-color="#78828E"/>
    </linearGradient>
    <!-- Floor highlight bloom (reflection of wall light) -->
    <radialGradient id="floorBloom" cx="0.55" cy="0.3" r="0.6">
      <stop offset="0" stop-color="#B4BEC8" stop-opacity="0.55"/>
      <stop offset="1" stop-color="#B4BEC8" stop-opacity="0"/>
    </radialGradient>

    <!-- Fine concrete grain (stays cool) -->
    <filter id="grain" x="0" y="0" width="100%" height="100%">
      <feTurbulence type="fractalNoise" baseFrequency="0.62 0.70" numOctaves="4" seed="9" stitchTiles="stitch"/>
      <feColorMatrix type="matrix" values="0 0 0 0 0  0 0 0 0 0  0 0 0 0 0  0.42 0.42 0.42 0 0"/>
      <feComposite operator="over" in2="SourceGraphic"/>
    </filter>

    <!-- Coarser cloud-like surface mottle -->
    <filter id="mottle" x="-5%" y="-5%" width="110%" height="110%">
      <feTurbulence type="fractalNoise" baseFrequency="0.0038 0.0055" numOctaves="7" seed="31" stitchTiles="stitch"/>
      <feColorMatrix type="matrix" values="0 0 0 0 0  0 0 0 0 0  0 0 0 0 0  1.0 1.0 1.0 0 0"/>
    </filter>

    <!-- Vignette: darker at all four edges -->
    <radialGradient id="vign" cx="0.5" cy="0.5" r="0.78">
      <stop offset="0.42" stop-color="#3C4858" stop-opacity="0"/>
      <stop offset="1"    stop-color="#3C4858" stop-opacity="0.30"/>
    </radialGradient>
  </defs>

  <!-- ═══ WALL BASE ═══ -->
  <rect width="1600" height="876" fill="url(#base)"/>

  <!-- Surface mottle (cool-tinted cloud variation) -->
  <rect width="1600" height="876" filter="url(#mottle)" fill="#6880A8" opacity="0.13"/>

  <!-- ═══ THREE PANEL ROWS ═══ -->
  <!-- Seams at y=292 and y=584. Floor from y=876. -->
  <rect x="0"   y="0"   width="1600" height="292" fill="url(#pf)"/>
  <rect x="0"   y="292" width="1600" height="292" fill="url(#pf)"/>
  <rect x="0"   y="584" width="1600" height="292" fill="url(#pf)"/>

  <!-- ═══ CLOUD STAINS (blue-grey damp patches, matching photo) ═══ -->
  <ellipse cx="310"  cy="490" rx="380" ry="195" fill="url(#stain1)"/>
  <ellipse cx="1100" cy="580" rx="360" ry="185" fill="url(#stain2)"/>
  <ellipse cx="720"  cy="720" rx="480" ry="160" fill="url(#stain3)"/>
  <ellipse cx="180"  cy="760" rx="270" ry="145" fill="url(#stain2)"/>
  <ellipse cx="1380" cy="320" rx="250" ry="130" fill="url(#stain1)"/>

  <!-- ═══ HORIZONTAL SEAMS ═══ -->
  <!-- Seam 1: y=292 -->
  <rect x="0" y="290" width="1600" height="1" fill="#C4CEDa" opacity="0.60"/>   <!-- light catch top edge -->
  <rect x="0" y="291" width="1600" height="3" fill="#5A6470" opacity="0.82"/>   <!-- dark seam line -->
  <rect x="0" y="294" width="1600" height="32" fill="url(#hs)"/>                 <!-- cast shadow below -->

  <!-- Seam 2: y=584 -->
  <rect x="0" y="582" width="1600" height="1" fill="#C4CEDA" opacity="0.60"/>
  <rect x="0" y="583" width="1600" height="3" fill="#5A6470" opacity="0.82"/>
  <rect x="0" y="586" width="1600" height="32" fill="url(#hs)"/>

  <!-- ═══ VERTICAL SEAM (centre) ═══ -->
  <!-- Light catch on left edge of right panel -->
  <rect x="796" y="0" width="2" height="876" fill="#CED8E2" opacity="0.55"/>
  <!-- Dark seam line -->
  <rect x="798" y="0" width="3" height="876" fill="#5A6470" opacity="0.78"/>
  <!-- Cast shadow to the right -->
  <rect x="801" y="0" width="35" height="876" fill="url(#vs)"/>

  <!-- ═══ FORMWORK TIE HOLES ═══ -->
  <!--
    3 rows per panel × 3 panels = 9 hole-rows.
    6 holes per row.
    x positions (ignoring seam, evenly spaced across 1600):
      133, 400, 667, 933, 1200, 1467
    y positions (1/4, 1/2, 3/4 of each panel band):
      Panel 1 (0-292):   y = 73,  146, 219
      Panel 2 (292-584): y = 365, 438, 511
      Panel 3 (584-876): y = 657, 730, 803
  -->

  <!-- OUTER SHADOW RING (dark grey) -->
  <g fill="#384050">
    <circle cx="133" cy="73"  r="11"/><circle cx="400" cy="73"  r="11"/>
    <circle cx="667" cy="73"  r="11"/><circle cx="933" cy="73"  r="11"/>
    <circle cx="1200" cy="73" r="11"/><circle cx="1467" cy="73" r="11"/>

    <circle cx="133" cy="146"  r="11"/><circle cx="400" cy="146"  r="11"/>
    <circle cx="667" cy="146"  r="11"/><circle cx="933" cy="146"  r="11"/>
    <circle cx="1200" cy="146" r="11"/><circle cx="1467" cy="146" r="11"/>

    <circle cx="133" cy="219"  r="11"/><circle cx="400" cy="219"  r="11"/>
    <circle cx="667" cy="219"  r="11"/><circle cx="933" cy="219"  r="11"/>
    <circle cx="1200" cy="219" r="11"/><circle cx="1467" cy="219" r="11"/>

    <circle cx="133" cy="365"  r="11"/><circle cx="400" cy="365"  r="11"/>
    <circle cx="667" cy="365"  r="11"/><circle cx="933" cy="365"  r="11"/>
    <circle cx="1200" cy="365" r="11"/><circle cx="1467" cy="365" r="11"/>

    <circle cx="133" cy="438"  r="11"/><circle cx="400" cy="438"  r="11"/>
    <circle cx="667" cy="438"  r="11"/><circle cx="933" cy="438"  r="11"/>
    <circle cx="1200" cy="438" r="11"/><circle cx="1467" cy="438" r="11"/>

    <circle cx="133" cy="511"  r="11"/><circle cx="400" cy="511"  r="11"/>
    <circle cx="667" cy="511"  r="11"/><circle cx="933" cy="511"  r="11"/>
    <circle cx="1200" cy="511" r="11"/><circle cx="1467" cy="511" r="11"/>

    <circle cx="133" cy="657"  r="11"/><circle cx="400" cy="657"  r="11"/>
    <circle cx="667" cy="657"  r="11"/><circle cx="933" cy="657"  r="11"/>
    <circle cx="1200" cy="657" r="11"/><circle cx="1467" cy="657" r="11"/>

    <circle cx="133" cy="730"  r="11"/><circle cx="400" cy="730"  r="11"/>
    <circle cx="667" cy="730"  r="11"/><circle cx="933" cy="730"  r="11"/>
    <circle cx="1200" cy="730" r="11"/><circle cx="1467" cy="730" r="11"/>

    <circle cx="133" cy="803"  r="11"/><circle cx="400" cy="803"  r="11"/>
    <circle cx="667" cy="803"  r="11"/><circle cx="933" cy="803"  r="11"/>
    <circle cx="1200" cy="803" r="11"/><circle cx="1467" cy="803" r="11"/>
  </g>

  <!-- INNER DARK CORE (deep conical void) -->
  <g fill="#22282E">
    <circle cx="133" cy="73"  r="6.5"/><circle cx="400" cy="73"  r="6.5"/>
    <circle cx="667" cy="73"  r="6.5"/><circle cx="933" cy="73"  r="6.5"/>
    <circle cx="1200" cy="73" r="6.5"/><circle cx="1467" cy="73" r="6.5"/>
    <circle cx="133" cy="146"  r="6.5"/><circle cx="400" cy="146"  r="6.5"/>
    <circle cx="667" cy="146"  r="6.5"/><circle cx="933" cy="146"  r="6.5"/>
    <circle cx="1200" cy="146" r="6.5"/><circle cx="1467" cy="146" r="6.5"/>
    <circle cx="133" cy="219"  r="6.5"/><circle cx="400" cy="219"  r="6.5"/>
    <circle cx="667" cy="219"  r="6.5"/><circle cx="933" cy="219"  r="6.5"/>
    <circle cx="1200" cy="219" r="6.5"/><circle cx="1467" cy="219" r="6.5"/>
    <circle cx="133" cy="365"  r="6.5"/><circle cx="400" cy="365"  r="6.5"/>
    <circle cx="667" cy="365"  r="6.5"/><circle cx="933" cy="365"  r="6.5"/>
    <circle cx="1200" cy="365" r="6.5"/><circle cx="1467" cy="365" r="6.5"/>
    <circle cx="133" cy="438"  r="6.5"/><circle cx="400" cy="438"  r="6.5"/>
    <circle cx="667" cy="438"  r="6.5"/><circle cx="933" cy="438"  r="6.5"/>
    <circle cx="1200" cy="438" r="6.5"/><circle cx="1467" cy="438" r="6.5"/>
    <circle cx="133" cy="511"  r="6.5"/><circle cx="400" cy="511"  r="6.5"/>
    <circle cx="667" cy="511"  r="6.5"/><circle cx="933" cy="511"  r="6.5"/>
    <circle cx="1200" cy="511" r="6.5"/><circle cx="1467" cy="511" r="6.5"/>
    <circle cx="133" cy="657"  r="6.5"/><circle cx="400" cy="657"  r="6.5"/>
    <circle cx="667" cy="657"  r="6.5"/><circle cx="933" cy="657"  r="6.5"/>
    <circle cx="1200" cy="657" r="6.5"/><circle cx="1467" cy="657" r="6.5"/>
    <circle cx="133" cy="730"  r="6.5"/><circle cx="400" cy="730"  r="6.5"/>
    <circle cx="667" cy="730"  r="6.5"/><circle cx="933" cy="730"  r="6.5"/>
    <circle cx="1200" cy="730" r="6.5"/><circle cx="1467" cy="730" r="6.5"/>
    <circle cx="133" cy="803"  r="6.5"/><circle cx="400" cy="803"  r="6.5"/>
    <circle cx="667" cy="803"  r="6.5"/><circle cx="933" cy="803"  r="6.5"/>
    <circle cx="1200" cy="803" r="6.5"/><circle cx="1467" cy="803" r="6.5"/>
  </g>

  <!-- HOLE HIGHLIGHT (light catching top-rim, like photo) -->
  <g fill="none" stroke="#C8D4DF" stroke-opacity="0.55" stroke-width="1.5">
    <circle cx="133" cy="71"  r="9"/><circle cx="400" cy="71"  r="9"/>
    <circle cx="667" cy="71"  r="9"/><circle cx="933" cy="71"  r="9"/>
    <circle cx="1200" cy="71" r="9"/><circle cx="1467" cy="71" r="9"/>
    <circle cx="133" cy="144"  r="9"/><circle cx="400" cy="144"  r="9"/>
    <circle cx="667" cy="144"  r="9"/><circle cx="933" cy="144"  r="9"/>
    <circle cx="1200" cy="144" r="9"/><circle cx="1467" cy="144" r="9"/>
    <circle cx="133" cy="217"  r="9"/><circle cx="400" cy="217"  r="9"/>
    <circle cx="667" cy="217"  r="9"/><circle cx="933" cy="217"  r="9"/>
    <circle cx="1200" cy="217" r="9"/><circle cx="1467" cy="217" r="9"/>
    <circle cx="133" cy="363"  r="9"/><circle cx="400" cy="363"  r="9"/>
    <circle cx="667" cy="363"  r="9"/><circle cx="933" cy="363"  r="9"/>
    <circle cx="1200" cy="363" r="9"/><circle cx="1467" cy="363" r="9"/>
    <circle cx="133" cy="436"  r="9"/><circle cx="400" cy="436"  r="9"/>
    <circle cx="667" cy="436"  r="9"/><circle cx="933" cy="436"  r="9"/>
    <circle cx="1200" cy="436" r="9"/><circle cx="1467" cy="436" r="9"/>
    <circle cx="133" cy="509"  r="9"/><circle cx="400" cy="509"  r="9"/>
    <circle cx="667" cy="509"  r="9"/><circle cx="933" cy="509"  r="9"/>
    <circle cx="1200" cy="509" r="9"/><circle cx="1467" cy="509" r="9"/>
    <circle cx="133" cy="655"  r="9"/><circle cx="400" cy="655"  r="9"/>
    <circle cx="667" cy="655"  r="9"/><circle cx="933" cy="655"  r="9"/>
    <circle cx="1200" cy="655" r="9"/><circle cx="1467" cy="655" r="9"/>
    <circle cx="133" cy="728"  r="9"/><circle cx="400" cy="728"  r="9"/>
    <circle cx="667" cy="728"  r="9"/><circle cx="933" cy="728"  r="9"/>
    <circle cx="1200" cy="728" r="9"/><circle cx="1467" cy="728" r="9"/>
    <circle cx="133" cy="801"  r="9"/><circle cx="400" cy="801"  r="9"/>
    <circle cx="667" cy="801"  r="9"/><circle cx="933" cy="801"  r="9"/>
    <circle cx="1200" cy="801" r="9"/><circle cx="1467" cy="801" r="9"/>
  </g>

  <!-- ═══ FINE GRAIN (across whole wall) ═══ -->
  <rect width="1600" height="876" filter="url(#grain)" fill="#6878A0" opacity="0.046"/>

  <!-- ═══ FLOOR ═══ -->
  <!-- Wall/floor junction: slight shadow line -->
  <rect x="0" y="874" width="1600" height="2" fill="#3C4858" opacity="0.60"/>
  <!-- Floor face -->
  <rect x="0" y="876" width="1600" height="124" fill="url(#floor)"/>
  <!-- Floor bloom (subtle reflection) -->
  <rect x="0" y="876" width="1600" height="124" fill="url(#floorBloom)"/>
  <!-- Floor grain -->
  <rect x="0" y="876" width="1600" height="124" filter="url(#grain)" fill="#6878A0" opacity="0.06"/>

  <!-- ═══ VIGNETTE ═══ -->
  <rect width="1600" height="1000" fill="url(#vign)"/>
</svg>
