<svg xmlns="http://www.w3.org/2000/svg" width="1600" height="1000" viewBox="0 0 1600 1000" preserveAspectRatio="xMidYMid slice">
  <defs>
    <linearGradient id="base" x1="0" y1="0" x2="0.7" y2="1">
      <stop offset="0" stop-color="#DCD7CC"/>
      <stop offset="0.45" stop-color="#D0CABD"/>
      <stop offset="1" stop-color="#BFB8A9"/>
    </linearGradient>
    <linearGradient id="panelShade" x1="0" y1="0" x2="0" y2="1">
      <stop offset="0" stop-color="#ffffff" stop-opacity="0.28"/>
      <stop offset="0.08" stop-color="#ffffff" stop-opacity="0"/>
      <stop offset="0.92" stop-color="#000000" stop-opacity="0"/>
      <stop offset="1" stop-color="#000000" stop-opacity="0.08"/>
    </linearGradient>
    <linearGradient id="streak" x1="0" y1="0" x2="0" y2="1">
      <stop offset="0" stop-color="#8d8574" stop-opacity="0.4"/>
      <stop offset="1" stop-color="#8d8574" stop-opacity="0"/>
    </linearGradient>
    <radialGradient id="vign" cx="0.42" cy="0.38" r="0.95">
      <stop offset="0.55" stop-color="#6e6655" stop-opacity="0"/>
      <stop offset="1" stop-color="#6e6655" stop-opacity="0.22"/>
    </radialGradient>
    <radialGradient id="stain" cx="0.5" cy="0.5" r="0.5">
      <stop offset="0" stop-color="#97907e" stop-opacity="0.28"/>
      <stop offset="1" stop-color="#97907e" stop-opacity="0"/>
    </radialGradient>
    <filter id="grain" x="0" y="0" width="100%" height="100%">
      <feTurbulence type="fractalNoise" baseFrequency="0.9" numOctaves="2" seed="7" stitchTiles="stitch"/>
      <feColorMatrix type="matrix" values="0 0 0 0 0  0 0 0 0 0  0 0 0 0 0  0.7 0.7 0.7 0 0"/>
      <feComposite operator="over" in2="SourceGraphic"/>
    </filter>
    <filter id="mottle" x="-10%" y="-10%" width="120%" height="120%">
      <feTurbulence type="fractalNoise" baseFrequency="0.006 0.011" numOctaves="5" seed="11" stitchTiles="stitch"/>
      <feColorMatrix type="matrix" values="0 0 0 0 0  0 0 0 0 0  0 0 0 0 0  0.9 0.9 0.9 0 0"/>
    </filter>
  </defs>

  <!-- base concrete -->
  <rect width="1600" height="1000" fill="url(#base)"/>

  <!-- mottled tonal variation -->
  <rect width="1600" height="1000" filter="url(#mottle)" fill="#6e6655" opacity="0.10"/>

  <!-- board-form panels -->
  <g>
    <rect x="0" y="0" width="1600" height="334" fill="url(#panelShade)"/>
    <rect x="0" y="334" width="1600" height="333" fill="url(#panelShade)"/>
    <rect x="0" y="667" width="1600" height="333" fill="url(#panelShade)"/>
  </g>

  <!-- seams -->
  <g stroke="#9a9281" stroke-opacity="0.9">
    <line x1="0" y1="334" x2="1600" y2="334" stroke-width="3"/>
    <line x1="0" y1="667" x2="1600" y2="667" stroke-width="3"/>
    <line x1="400" y1="0" x2="400" y2="1000" stroke-width="2.5"/>
    <line x1="800" y1="0" x2="800" y2="1000" stroke-width="2.5"/>
    <line x1="1200" y1="0" x2="1200" y2="1000" stroke-width="2.5"/>
  </g>
  <g stroke="#ffffff" stroke-opacity="0.5">
    <line x1="0" y1="336.5" x2="1600" y2="336.5" stroke-width="1.2"/>
    <line x1="0" y1="669.5" x2="1600" y2="669.5" stroke-width="1.2"/>
    <line x1="402" y1="0" x2="402" y2="1000" stroke-width="1"/>
    <line x1="802" y1="0" x2="802" y2="1000" stroke-width="1"/>
    <line x1="1202" y1="0" x2="1202" y2="1000" stroke-width="1"/>
  </g>

  <!-- formwork tie holes -->
  <g>
    <g fill="#8d8574">
      <circle cx="200" cy="167" r="13"/><circle cx="600" cy="167" r="13"/><circle cx="1000" cy="167" r="13"/><circle cx="1400" cy="167" r="13"/>
      <circle cx="200" cy="500" r="13"/><circle cx="600" cy="500" r="13"/><circle cx="1000" cy="500" r="13"/><circle cx="1400" cy="500" r="13"/>
      <circle cx="200" cy="833" r="13"/><circle cx="600" cy="833" r="13"/><circle cx="1000" cy="833" r="13"/><circle cx="1400" cy="833" r="13"/>
    </g>
    <g fill="none" stroke="#ffffff" stroke-opacity="0.6" stroke-width="2">
      <circle cx="200" cy="165" r="13"/><circle cx="600" cy="165" r="13"/><circle cx="1000" cy="165" r="13"/><circle cx="1400" cy="165" r="13"/>
      <circle cx="200" cy="498" r="13"/><circle cx="600" cy="498" r="13"/><circle cx="1000" cy="498" r="13"/><circle cx="1400" cy="498" r="13"/>
      <circle cx="200" cy="831" r="13"/><circle cx="600" cy="831" r="13"/><circle cx="1000" cy="831" r="13"/><circle cx="1400" cy="831" r="13"/>
    </g>
  </g>

  <!-- weather streaks -->
  <g>
    <rect x="188" y="180" width="24" height="150" fill="url(#streak)" opacity="0.55"/>
    <rect x="988" y="180" width="24" height="190" fill="url(#streak)" opacity="0.45"/>
    <rect x="588" y="513" width="24" height="160" fill="url(#streak)" opacity="0.5"/>
    <rect x="1388" y="513" width="24" height="200" fill="url(#streak)" opacity="0.45"/>
    <rect x="188" y="846" width="24" height="120" fill="url(#streak)" opacity="0.45"/>
    <rect x="0" y="334" width="1600" height="90" fill="url(#streak)" opacity="0.3"/>
    <rect x="0" y="667" width="1600" height="90" fill="url(#streak)" opacity="0.25"/>
  </g>

  <!-- damp stains -->
  <ellipse cx="1180" cy="260" rx="320" ry="200" fill="url(#stain)"/>
  <ellipse cx="350" cy="760" rx="380" ry="230" fill="url(#stain)"/>
  <ellipse cx="1450" cy="850" rx="300" ry="220" fill="url(#stain)"/>

  <!-- fine grain -->
  <rect width="1600" height="1000" filter="url(#grain)" fill="#6e6655" opacity="0.05"/>

  <!-- vignette -->
  <rect width="1600" height="1000" fill="url(#vign)"/>
</svg>
