<svg xmlns="http://www.w3.org/2000/svg" width="1600" height="1000" viewBox="0 0 1600 1000" preserveAspectRatio="xMidYMid slice">
  <defs>
    <!-- base concrete: raking light from upper-left -->
    <linearGradient id="base" x1="0" y1="0" x2="1" y2="1">
      <stop offset="0"   stop-color="#E0DBD0"/>
      <stop offset="0.4" stop-color="#CECABC"/>
      <stop offset="1"   stop-color="#B8B3A6"/>
    </linearGradient>

    <!-- projecting slab top face (catches light) -->
    <linearGradient id="slabTop" x1="0" y1="0" x2="0" y2="1">
      <stop offset="0" stop-color="#EEEAE0"/>
      <stop offset="1" stop-color="#D8D3C8"/>
    </linearGradient>

    <!-- shadow cast below each projecting slab -->
    <linearGradient id="slabShadow" x1="0" y1="0" x2="0" y2="1">
      <stop offset="0"    stop-color="#60594E" stop-opacity="0.72"/>
      <stop offset="0.55" stop-color="#60594E" stop-opacity="0.18"/>
      <stop offset="1"    stop-color="#60594E" stop-opacity="0"/>
    </linearGradient>

    <!-- shadow to right of each pilaster -->
    <linearGradient id="pilShadow" x1="0" y1="0" x2="1" y2="0">
      <stop offset="0"    stop-color="#60594E" stop-opacity="0.52"/>
      <stop offset="0.65" stop-color="#60594E" stop-opacity="0.10"/>
      <stop offset="1"    stop-color="#60594E" stop-opacity="0"/>
    </linearGradient>

    <!-- window void: deep recess -->
    <radialGradient id="void" cx="0.35" cy="0.3" r="0.85">
      <stop offset="0" stop-color="#A09A8E"/>
      <stop offset="1" stop-color="#5C5850"/>
    </radialGradient>

    <!-- shadow under spandrel above each void -->
    <linearGradient id="voidTopShadow" x1="0" y1="0" x2="0" y2="1">
      <stop offset="0" stop-color="#3C382E" stop-opacity="0.55"/>
      <stop offset="1" stop-color="#3C382E" stop-opacity="0"/>
    </linearGradient>

    <!-- rust stain streaks from tie holes -->
    <linearGradient id="rust" x1="0" y1="0" x2="0" y2="1">
      <stop offset="0" stop-color="#8B6540" stop-opacity="0.52"/>
      <stop offset="1" stop-color="#8B6540" stop-opacity="0"/>
    </linearGradient>

    <!-- damp stain -->
    <radialGradient id="stain" cx="0.5" cy="0.5" r="0.5">
      <stop offset="0" stop-color="#8A857A" stop-opacity="0.22"/>
      <stop offset="1" stop-color="#8A857A" stop-opacity="0"/>
    </radialGradient>

    <!-- fine concrete grain -->
    <filter id="grain" x="0" y="0" width="100%" height="100%">
      <feTurbulence type="fractalNoise" baseFrequency="0.85" numOctaves="3" seed="13" stitchTiles="stitch"/>
      <feColorMatrix type="matrix" values="0 0 0 0 0  0 0 0 0 0  0 0 0 0 0  0.55 0.55 0.55 0 0"/>
      <feComposite operator="over" in2="SourceGraphic"/>
    </filter>

    <!-- coarse concrete mottle -->
    <filter id="mottle" x="-10%" y="-10%" width="120%" height="120%">
      <feTurbulence type="fractalNoise" baseFrequency="0.005 0.009" numOctaves="5" seed="17" stitchTiles="stitch"/>
      <feColorMatrix type="matrix" values="0 0 0 0 0  0 0 0 0 0  0 0 0 0 0  0.9 0.9 0.9 0 0"/>
    </filter>

    <!-- vignette -->
    <radialGradient id="vign" cx="0.45" cy="0.42" r="1.0">
      <stop offset="0.5" stop-color="#5A5448" stop-opacity="0"/>
      <stop offset="1"   stop-color="#5A5448" stop-opacity="0.30"/>
    </radialGradient>
  </defs>

  <!-- BASE CONCRETE -->
  <rect width="1600" height="1000" fill="url(#base)"/>
  <rect width="1600" height="1000" filter="url(#mottle)" fill="#706A5C" opacity="0.10"/>

  <!-- FLOOR SLABS — projecting overhangs at y=255, y=510, y=765 -->
  <!-- Each: 10px lit top face + 70px cast shadow below -->
  <rect x="0" y="247" width="1600" height="10" fill="url(#slabTop)"/>
  <rect x="0" y="257" width="1600" height="70" fill="url(#slabShadow)"/>
  <rect x="0" y="502" width="1600" height="10" fill="url(#slabTop)"/>
  <rect x="0" y="512" width="1600" height="70" fill="url(#slabShadow)"/>
  <rect x="0" y="757" width="1600" height="10" fill="url(#slabTop)"/>
  <rect x="0" y="767" width="1600" height="70" fill="url(#slabShadow)"/>

  <!-- VERTICAL PILASTERS — 5 at x=267, 534, 800, 1067, 1334 -->
  <!-- Each: 20px lit face + 58px shadow to right -->
  <rect x="257"  y="0" width="20" height="1000" fill="#EDEADF" opacity="0.80"/>
  <rect x="524"  y="0" width="20" height="1000" fill="#EDEADF" opacity="0.80"/>
  <rect x="790"  y="0" width="20" height="1000" fill="#EDEADF" opacity="0.80"/>
  <rect x="1057" y="0" width="20" height="1000" fill="#EDEADF" opacity="0.80"/>
  <rect x="1324" y="0" width="20" height="1000" fill="#EDEADF" opacity="0.80"/>
  <rect x="277"  y="0" width="58" height="1000" fill="url(#pilShadow)"/>
  <rect x="544"  y="0" width="58" height="1000" fill="url(#pilShadow)"/>
  <rect x="810"  y="0" width="58" height="1000" fill="url(#pilShadow)"/>
  <rect x="1077" y="0" width="58" height="1000" fill="url(#pilShadow)"/>
  <rect x="1344" y="0" width="58" height="1000" fill="url(#pilShadow)"/>

  <!-- WINDOW VOIDS -->
  <!-- Bays: A x=0-257 | B x=277-524 | C x=544-790 | D x=810-1057 | E x=1077-1324 | F x=1344-1600 -->
  <!-- Floors: 4 void y=42,h=195 | 3 void y=327,h=165 | 2 void y=582,h=165 | 1 void y=837,h=148 -->

  <!-- FLOOR 4 -->
  <rect x="6"    y="42" width="243" height="195" fill="url(#void)"/>
  <rect x="283"  y="42" width="233" height="195" fill="url(#void)"/>
  <rect x="550"  y="42" width="232" height="195" fill="url(#void)"/>
  <rect x="816"  y="42" width="233" height="195" fill="url(#void)"/>
  <rect x="1083" y="42" width="233" height="195" fill="url(#void)"/>
  <rect x="1350" y="42" width="242" height="195" fill="url(#void)"/>
  <rect x="6"    y="42" width="243" height="28"  fill="url(#voidTopShadow)"/>
  <rect x="283"  y="42" width="233" height="28"  fill="url(#voidTopShadow)"/>
  <rect x="550"  y="42" width="232" height="28"  fill="url(#voidTopShadow)"/>
  <rect x="816"  y="42" width="233" height="28"  fill="url(#voidTopShadow)"/>
  <rect x="1083" y="42" width="233" height="28"  fill="url(#voidTopShadow)"/>
  <rect x="1350" y="42" width="242" height="28"  fill="url(#voidTopShadow)"/>

  <!-- FLOOR 3 -->
  <rect x="6"    y="327" width="243" height="165" fill="url(#void)"/>
  <rect x="283"  y="327" width="233" height="165" fill="url(#void)"/>
  <rect x="550"  y="327" width="232" height="165" fill="url(#void)"/>
  <rect x="816"  y="327" width="233" height="165" fill="url(#void)"/>
  <rect x="1083" y="327" width="233" height="165" fill="url(#void)"/>
  <rect x="1350" y="327" width="242" height="165" fill="url(#void)"/>
  <rect x="6"    y="327" width="243" height="28"  fill="url(#voidTopShadow)"/>
  <rect x="283"  y="327" width="233" height="28"  fill="url(#voidTopShadow)"/>
  <rect x="550"  y="327" width="232" height="28"  fill="url(#voidTopShadow)"/>
  <rect x="816"  y="327" width="233" height="28"  fill="url(#voidTopShadow)"/>
  <rect x="1083" y="327" width="233" height="28"  fill="url(#voidTopShadow)"/>
  <rect x="1350" y="327" width="242" height="28"  fill="url(#voidTopShadow)"/>

  <!-- FLOOR 2 -->
  <rect x="6"    y="582" width="243" height="165" fill="url(#void)"/>
  <rect x="283"  y="582" width="233" height="165" fill="url(#void)"/>
  <rect x="550"  y="582" width="232" height="165" fill="url(#void)"/>
  <rect x="816"  y="582" width="233" height="165" fill="url(#void)"/>
  <rect x="1083" y="582" width="233" height="165" fill="url(#void)"/>
  <rect x="1350" y="582" width="242" height="165" fill="url(#void)"/>
  <rect x="6"    y="582" width="243" height="28"  fill="url(#voidTopShadow)"/>
  <rect x="283"  y="582" width="233" height="28"  fill="url(#voidTopShadow)"/>
  <rect x="550"  y="582" width="232" height="28"  fill="url(#voidTopShadow)"/>
  <rect x="816"  y="582" width="233" height="28"  fill="url(#voidTopShadow)"/>
  <rect x="1083" y="582" width="233" height="28"  fill="url(#voidTopShadow)"/>
  <rect x="1350" y="582" width="242" height="28"  fill="url(#voidTopShadow)"/>

  <!-- FLOOR 1 (base, partial) -->
  <rect x="6"    y="837" width="243" height="148" fill="url(#void)"/>
  <rect x="283"  y="837" width="233" height="148" fill="url(#void)"/>
  <rect x="550"  y="837" width="232" height="148" fill="url(#void)"/>
  <rect x="816"  y="837" width="233" height="148" fill="url(#void)"/>
  <rect x="1083" y="837" width="233" height="148" fill="url(#void)"/>
  <rect x="1350" y="837" width="242" height="148" fill="url(#void)"/>
  <rect x="6"    y="837" width="243" height="28"  fill="url(#voidTopShadow)"/>
  <rect x="283"  y="837" width="233" height="28"  fill="url(#voidTopShadow)"/>
  <rect x="550"  y="837" width="232" height="28"  fill="url(#voidTopShadow)"/>
  <rect x="816"  y="837" width="233" height="28"  fill="url(#voidTopShadow)"/>
  <rect x="1083" y="837" width="233" height="28"  fill="url(#voidTopShadow)"/>
  <rect x="1350" y="837" width="242" height="28"  fill="url(#voidTopShadow)"/>

  <!-- TIE HOLES — on pilaster faces, in each spandrel zone -->
  <g fill="#9A9488">
    <circle cx="267" cy="18"  r="10"/><circle cx="534" cy="18"  r="10"/>
    <circle cx="800" cy="18"  r="10"/><circle cx="1067" cy="18" r="10"/><circle cx="1334" cy="18" r="10"/>
    <circle cx="267" cy="288" r="10"/><circle cx="534" cy="288" r="10"/>
    <circle cx="800" cy="288" r="10"/><circle cx="1067" cy="288" r="10"/><circle cx="1334" cy="288" r="10"/>
    <circle cx="267" cy="543" r="10"/><circle cx="534" cy="543" r="10"/>
    <circle cx="800" cy="543" r="10"/><circle cx="1067" cy="543" r="10"/><circle cx="1334" cy="543" r="10"/>
    <circle cx="267" cy="798" r="10"/><circle cx="534" cy="798" r="10"/>
    <circle cx="800" cy="798" r="10"/><circle cx="1067" cy="798" r="10"/><circle cx="1334" cy="798" r="10"/>
  </g>
  <g fill="none" stroke="#EEEADE" stroke-opacity="0.65" stroke-width="1.5">
    <circle cx="267" cy="16"  r="10"/><circle cx="534" cy="16"  r="10"/>
    <circle cx="800" cy="16"  r="10"/><circle cx="1067" cy="16" r="10"/><circle cx="1334" cy="16" r="10"/>
    <circle cx="267" cy="286" r="10"/><circle cx="534" cy="286" r="10"/>
    <circle cx="800" cy="286" r="10"/><circle cx="1067" cy="286" r="10"/><circle cx="1334" cy="286" r="10"/>
    <circle cx="267" cy="541" r="10"/><circle cx="534" cy="541" r="10"/>
    <circle cx="800" cy="541" r="10"/><circle cx="1067" cy="541" r="10"/><circle cx="1334" cy="541" r="10"/>
    <circle cx="267" cy="796" r="10"/><circle cx="534" cy="796" r="10"/>
    <circle cx="800" cy="796" r="10"/><circle cx="1067" cy="796" r="10"/><circle cx="1334" cy="796" r="10"/>
  </g>

  <!-- RUST STAINS from tie holes -->
  <rect x="261"  y="28"  width="12" height="110" fill="url(#rust)" opacity="0.65"/>
  <rect x="528"  y="28"  width="12" height="85"  fill="url(#rust)" opacity="0.55"/>
  <rect x="794"  y="28"  width="12" height="130" fill="url(#rust)" opacity="0.60"/>
  <rect x="261"  y="298" width="12" height="95"  fill="url(#rust)" opacity="0.50"/>
  <rect x="1061" y="298" width="12" height="75"  fill="url(#rust)" opacity="0.45"/>
  <rect x="794"  y="553" width="12" height="100" fill="url(#rust)" opacity="0.55"/>
  <rect x="1328" y="553" width="12" height="80"  fill="url(#rust)" opacity="0.42"/>
  <rect x="261"  y="808" width="12" height="60"  fill="url(#rust)" opacity="0.40"/>

  <!-- DAMP STAINS / EFFLORESCENCE on spandrel faces -->
  <ellipse cx="120"  cy="185" rx="185" ry="52" fill="url(#stain)"/>
  <ellipse cx="950"  cy="445" rx="220" ry="58" fill="url(#stain)"/>
  <ellipse cx="430"  cy="710" rx="175" ry="48" fill="url(#stain)"/>
  <ellipse cx="1430" cy="180" rx="170" ry="50" fill="url(#stain)"/>
  <ellipse cx="700"  cy="970" rx="260" ry="36" fill="url(#stain)"/>

  <!-- BOARD MARKS in spandrel zones -->
  <g stroke="#9A9285" stroke-opacity="0.14" stroke-width="1">
    <line x1="0" y1="14"  x2="1600" y2="14"/>
    <line x1="0" y1="274" x2="1600" y2="274"/>
    <line x1="0" y1="306" x2="1600" y2="306"/>
    <line x1="0" y1="529" x2="1600" y2="529"/>
    <line x1="0" y1="561" x2="1600" y2="561"/>
    <line x1="0" y1="784" x2="1600" y2="784"/>
    <line x1="0" y1="816" x2="1600" y2="816"/>
  </g>

  <!-- FINE GRAIN -->
  <rect width="1600" height="1000" filter="url(#grain)" fill="#6e6655" opacity="0.05"/>

  <!-- VIGNETTE -->
  <rect width="1600" height="1000" fill="url(#vign)"/>
</svg>
